<svg xmlns="http://www.w3.org/2000/svg" width="236.11" height="35" viewBox="0 0 236.11 35"><rect class="svg__rect" x="0" y="0" width="127.05" height="35" fill="#080808"/><rect class="svg__rect" x="125.05" y="0" width="111.06" height="35" fill="#80A0FF"/><path class="svg__text" d="M15.78 22L14.31 22L14.31 13.47L15.78 13.47L15.78 22ZM22.07 22L20.59 22L20.59 13.47L22.07 13.47L25.89 19.54L25.89 13.47L27.36 13.47L27.36 22L25.88 22L22.07 15.95L22.07 22ZM31.67 19.42L31.67 19.42L33.15 19.42Q33.15 20.15 33.63 20.55Q34.11 20.95 35.01 20.95L35.01 20.95Q35.78 20.95 36.17 20.63Q36.56 20.32 36.56 19.80L36.56 19.80Q36.56 19.24 36.16 18.94Q35.77 18.63 34.74 18.32Q33.71 18.01 33.10 17.63L33.10 17.63Q31.93 16.90 31.93 15.72L31.93 15.72Q31.93 14.69 32.77 14.02Q33.61 13.35 34.95 13.35L34.95 13.35Q35.84 13.35 36.54 13.68Q37.24 14.01 37.64 14.61Q38.04 15.22 38.04 15.96L38.04 15.96L36.56 15.96Q36.56 15.29 36.14 14.91Q35.72 14.54 34.94 14.54L34.94 14.54Q34.22 14.54 33.81 14.85Q33.41 15.16 33.41 15.71L33.41 15.71Q33.41 16.18 33.85 16.50Q34.28 16.81 35.28 17.10Q36.27 17.40 36.88 17.78Q37.48 18.16 37.76 18.65Q38.04 19.13 38.04 19.79L38.04 19.79Q38.04 20.86 37.22 21.49Q36.41 22.12 35.01 22.12L35.01 22.12Q34.08 22.12 33.30 21.77Q32.53 21.43 32.10 20.83Q31.67 20.22 31.67 19.42ZM43.81 22L42.33 22L42.33 13.47L45.59 13.47Q47.02 13.47 47.86 14.21Q48.71 14.96 48.71 16.18L48.71 16.18Q48.71 17.44 47.88 18.13Q47.06 18.83 45.58 18.83L45.58 18.83L43.81 18.83L43.81 22ZM43.81 14.66L43.81 17.64L45.59 17.64Q46.39 17.64 46.80 17.27Q47.22 16.90 47.22 16.19L47.22 16.19Q47.22 15.50 46.80 15.09Q46.37 14.68 45.64 14.66L45.64 14.66L43.81 14.66ZM54.55 22L53.08 22L53.08 13.47L54.55 13.47L54.55 22ZM60.85 22L59.36 22L59.36 13.47L62.36 13.47Q63.84 13.47 64.64 14.13Q65.45 14.79 65.45 16.05L65.45 16.05Q65.45 16.90 65.03 17.48Q64.62 18.06 63.88 18.37L63.88 18.37L65.80 21.92L65.80 22L64.21 22L62.50 18.71L60.85 18.71L60.85 22ZM60.85 14.66L60.85 17.52L62.37 17.52Q63.12 17.52 63.54 17.15Q63.96 16.77 63.96 16.11L63.96 16.11Q63.96 15.43 63.57 15.05Q63.18 14.68 62.41 14.66L62.41 14.66L60.85 14.66ZM75.42 22L69.84 22L69.84 13.47L75.38 13.47L75.38 14.66L71.32 14.66L71.32 17.02L74.83 17.02L74.83 18.19L71.32 18.19L71.32 20.82L75.42 20.82L75.42 22ZM82.07 22L79.61 22L79.61 13.47L82.13 13.47Q83.26 13.47 84.14 13.97Q85.02 14.48 85.50 15.40Q85.98 16.33 85.98 17.52L85.98 17.52L85.98 17.95Q85.98 19.16 85.49 20.08Q85.01 21.00 84.12 21.50Q83.22 22 82.07 22L82.07 22ZM81.10 14.66L81.10 20.82L82.06 20.82Q83.23 20.82 83.85 20.09Q84.48 19.36 84.49 17.99L84.49 17.99L84.49 17.52Q84.49 16.13 83.89 15.40Q83.28 14.66 82.13 14.66L82.13 14.66L81.10 14.66ZM99.53 22L96.42 22L96.42 13.47L99.34 13.47Q100.79 13.47 101.55 14.05Q102.30 14.63 102.30 15.78L102.30 15.78Q102.30 16.36 101.98 16.83Q101.67 17.30 101.06 17.56L101.06 17.56Q101.75 17.75 102.13 18.26Q102.51 18.78 102.51 19.51L102.51 19.51Q102.51 20.71 101.74 21.36Q100.97 22 99.53 22L99.53 22ZM97.90 18.15L97.90 20.82L99.55 20.82Q100.24 20.82 100.64 20.47Q101.03 20.13 101.03 19.51L101.03 19.51Q101.03 18.18 99.67 18.15L99.67 18.15L97.90 18.15ZM97.90 14.66L97.90 17.06L99.35 17.06Q100.05 17.06 100.43 16.75Q100.82 16.43 100.82 15.86L100.82 15.86Q100.82 15.23 100.46 14.95Q100.10 14.66 99.34 14.66L99.34 14.66L97.90 14.66ZM109.02 18.86L106.15 13.47L107.80 13.47L109.76 17.51L111.72 13.47L113.36 13.47L110.50 18.86L110.50 22L109.02 22L109.02 18.86Z" fill="#C6C6C6"/><path class="svg__text" d="M141.44 22L139.24 22L139.24 13.60L141.19 13.60L144.15 18.45L147.03 13.60L148.98 13.60L149.01 22L146.83 22L146.80 17.55L144.64 21.17L143.59 21.17L141.44 17.67L141.44 22ZM153.74 17.80L153.74 17.80Q153.74 16.55 154.34 15.55Q154.95 14.56 156.01 14.00Q157.07 13.43 158.40 13.43L158.40 13.43Q159.73 13.43 160.80 14.00Q161.86 14.56 162.47 15.55Q163.07 16.55 163.07 17.80L163.07 17.80Q163.07 19.05 162.47 20.04Q161.86 21.04 160.80 21.60Q159.74 22.17 158.40 22.17L158.40 22.17Q157.07 22.17 156.01 21.60Q154.95 21.04 154.34 20.04Q153.74 19.05 153.74 17.80ZM156.14 17.80L156.14 17.80Q156.14 18.51 156.44 19.05Q156.74 19.60 157.26 19.90Q157.77 20.20 158.40 20.20L158.40 20.20Q159.04 20.20 159.56 19.90Q160.07 19.60 160.37 19.05Q160.67 18.51 160.67 17.80L160.67 17.80Q160.67 17.09 160.37 16.54Q160.07 16 159.56 15.70Q159.04 15.40 158.40 15.40L158.40 15.40Q157.77 15.40 157.25 15.70Q156.74 16 156.44 16.54Q156.14 17.09 156.14 17.80ZM167.37 17.80L167.37 17.80Q167.37 16.55 167.98 15.55Q168.58 14.56 169.65 14.00Q170.71 13.43 172.04 13.43L172.04 13.43Q173.37 13.43 174.43 14.00Q175.50 14.56 176.10 15.55Q176.71 16.55 176.71 17.80L176.71 17.80Q176.71 19.05 176.10 20.04Q175.50 21.04 174.44 21.60Q173.37 22.17 172.04 22.17L172.04 22.17Q170.71 22.17 169.65 21.60Q168.58 21.04 167.98 20.04Q167.37 19.05 167.37 17.80ZM169.77 17.80L169.77 17.80Q169.77 18.51 170.07 19.05Q170.37 19.60 170.89 19.90Q171.41 20.20 172.04 20.20L172.04 20.20Q172.68 20.20 173.19 19.90Q173.71 19.60 174.01 19.05Q174.31 18.51 174.31 17.80L174.31 17.80Q174.31 17.09 174.01 16.54Q173.71 16 173.19 15.70Q172.68 15.40 172.04 15.40L172.04 15.40Q171.40 15.40 170.89 15.70Q170.37 16 170.07 16.54Q169.77 17.09 169.77 17.80ZM183.77 22L181.44 22L181.44 13.60L183.39 13.60L187.10 18.07L187.10 13.60L189.43 13.60L189.43 22L187.48 22L183.77 17.52L183.77 22ZM196.97 22L194.59 22L194.59 13.60L201.18 13.60L201.18 15.44L196.97 15.44L196.97 17.28L200.68 17.28L200.68 19.12L196.97 19.12L196.97 22ZM212.16 22L205.78 22L205.78 13.60L208.16 13.60L208.16 20.11L212.16 20.11L212.16 22ZM218.71 18.95L215.50 13.60L218.01 13.60L220.00 16.94L222.00 13.60L224.30 13.60L221.08 18.99L221.08 22L218.71 22L218.71 18.95Z" fill="#FFFFFF" x="138.05"/></svg>