<svg xmlns="http://www.w3.org/2000/svg" width="265.63" height="35" viewBox="0 0 265.63 35"><rect class="svg__rect" x="0" y="0" width="127.05" height="35" fill="#1E1E28"/><rect class="svg__rect" x="125.05" y="0" width="140.57999999999998" height="35" fill="#A4B9EF"/><path class="svg__text" d="M15.78 22L14.31 22L14.31 13.47L15.78 13.47L15.78 22ZM22.07 22L20.59 22L20.59 13.47L22.07 13.47L25.89 19.54L25.89 13.47L27.36 13.47L27.36 22L25.88 22L22.07 15.95L22.07 22ZM31.67 19.42L31.67 19.42L33.15 19.42Q33.15 20.15 33.63 20.55Q34.11 20.95 35.01 20.95L35.01 20.95Q35.78 20.95 36.17 20.63Q36.56 20.32 36.56 19.80L36.56 19.80Q36.56 19.24 36.16 18.94Q35.77 18.63 34.74 18.32Q33.71 18.01 33.10 17.63L33.10 17.63Q31.93 16.90 31.93 15.72L31.93 15.72Q31.93 14.69 32.77 14.02Q33.61 13.35 34.95 13.35L34.95 13.35Q35.84 13.35 36.54 13.68Q37.24 14.01 37.64 14.61Q38.04 15.22 38.04 15.96L38.04 15.96L36.56 15.96Q36.56 15.29 36.14 14.91Q35.72 14.54 34.94 14.54L34.94 14.54Q34.22 14.54 33.81 14.85Q33.41 15.16 33.41 15.71L33.41 15.71Q33.41 16.18 33.85 16.50Q34.28 16.81 35.28 17.10Q36.27 17.40 36.88 17.78Q37.48 18.16 37.76 18.65Q38.04 19.13 38.04 19.79L38.04 19.79Q38.04 20.86 37.22 21.49Q36.41 22.12 35.01 22.12L35.01 22.12Q34.08 22.12 33.30 21.77Q32.53 21.43 32.10 20.83Q31.67 20.22 31.67 19.42ZM43.81 22L42.33 22L42.33 13.47L45.59 13.47Q47.02 13.47 47.86 14.21Q48.71 14.96 48.71 16.18L48.71 16.18Q48.71 17.44 47.88 18.13Q47.06 18.83 45.58 18.83L45.58 18.83L43.81 18.83L43.81 22ZM43.81 14.66L43.81 17.64L45.59 17.64Q46.39 17.64 46.80 17.27Q47.22 16.90 47.22 16.19L47.22 16.19Q47.22 15.50 46.80 15.09Q46.37 14.68 45.64 14.66L45.64 14.66L43.81 14.66ZM54.55 22L53.08 22L53.08 13.47L54.55 13.47L54.55 22ZM60.85 22L59.36 22L59.36 13.47L62.36 13.47Q63.84 13.47 64.64 14.13Q65.45 14.79 65.45 16.05L65.45 16.05Q65.45 16.90 65.03 17.48Q64.62 18.06 63.88 18.37L63.88 18.37L65.80 21.92L65.80 22L64.21 22L62.50 18.71L60.85 18.71L60.85 22ZM60.85 14.66L60.85 17.52L62.37 17.52Q63.12 17.52 63.54 17.15Q63.96 16.77 63.96 16.11L63.96 16.11Q63.96 15.43 63.57 15.05Q63.18 14.68 62.41 14.66L62.41 14.66L60.85 14.66ZM75.42 22L69.84 22L69.84 13.47L75.38 13.47L75.38 14.66L71.32 14.66L71.32 17.02L74.83 17.02L74.83 18.19L71.32 18.19L71.32 20.82L75.42 20.82L75.42 22ZM82.07 22L79.61 22L79.61 13.47L82.13 13.47Q83.26 13.47 84.14 13.97Q85.02 14.48 85.50 15.40Q85.98 16.33 85.98 17.52L85.98 17.52L85.98 17.95Q85.98 19.16 85.49 20.08Q85.01 21.00 84.12 21.50Q83.22 22 82.07 22L82.07 22ZM81.10 14.66L81.10 20.82L82.06 20.82Q83.23 20.82 83.85 20.09Q84.48 19.36 84.49 17.99L84.49 17.99L84.49 17.52Q84.49 16.13 83.89 15.40Q83.28 14.66 82.13 14.66L82.13 14.66L81.10 14.66ZM99.53 22L96.42 22L96.42 13.47L99.34 13.47Q100.79 13.47 101.55 14.05Q102.30 14.63 102.30 15.78L102.30 15.78Q102.30 16.36 101.98 16.83Q101.67 17.30 101.06 17.56L101.06 17.56Q101.75 17.75 102.13 18.26Q102.51 18.78 102.51 19.51L102.51 19.51Q102.51 20.71 101.74 21.36Q100.97 22 99.53 22L99.53 22ZM97.90 18.15L97.90 20.82L99.55 20.82Q100.24 20.82 100.64 20.47Q101.03 20.13 101.03 19.51L101.03 19.51Q101.03 18.18 99.67 18.15L99.67 18.15L97.90 18.15ZM97.90 14.66L97.90 17.06L99.35 17.06Q100.05 17.06 100.43 16.75Q100.82 16.43 100.82 15.86L100.82 15.86Q100.82 15.23 100.46 14.95Q100.10 14.66 99.34 14.66L99.34 14.66L97.90 14.66ZM109.02 18.86L106.15 13.47L107.80 13.47L109.76 17.51L111.72 13.47L113.36 13.47L110.50 18.86L110.50 22L109.02 22L109.02 18.86Z" fill="#FFFFFF"/><path class="svg__text" d="M138.81 17.80L138.81 17.80Q138.81 16.54 139.41 15.54Q140.01 14.55 141.06 13.99Q142.11 13.43 143.43 13.43L143.43 13.43Q144.58 13.43 145.50 13.84Q146.43 14.25 147.04 15.02L147.04 15.02L145.53 16.39Q144.72 15.40 143.55 15.40L143.55 15.40Q142.86 15.40 142.33 15.70Q141.80 16 141.50 16.54Q141.21 17.09 141.21 17.80L141.21 17.80Q141.21 18.51 141.50 19.05Q141.80 19.60 142.33 19.90Q142.86 20.20 143.55 20.20L143.55 20.20Q144.72 20.20 145.53 19.22L145.53 19.22L147.04 20.58Q146.43 21.35 145.51 21.76Q144.58 22.17 143.43 22.17L143.43 22.17Q142.11 22.17 141.06 21.61Q140.01 21.05 139.41 20.05Q138.81 19.06 138.81 17.80ZM153.00 22L150.57 22L154.28 13.60L156.62 13.60L160.34 22L157.87 22L157.21 20.37L153.66 20.37L153.00 22ZM155.43 15.93L154.35 18.61L156.51 18.61L155.43 15.93ZM166.28 15.48L163.70 15.48L163.70 13.60L171.22 13.60L171.22 15.48L168.66 15.48L168.66 22L166.28 22L166.28 15.48ZM177.97 22L175.60 22L175.60 13.60L179.44 13.60Q180.58 13.60 181.42 13.98Q182.26 14.35 182.71 15.06Q183.17 15.76 183.17 16.71L183.17 16.71Q183.17 17.66 182.71 18.35Q182.26 19.05 181.42 19.42Q180.58 19.80 179.44 19.80L179.44 19.80L177.97 19.80L177.97 22ZM177.97 15.47L177.97 17.93L179.29 17.93Q180.03 17.93 180.40 17.61Q180.77 17.29 180.77 16.71L180.77 16.71Q180.77 16.12 180.40 15.80Q180.03 15.47 179.29 15.47L179.29 15.47L177.97 15.47ZM190.30 22L187.92 22L187.92 13.60L191.77 13.60Q192.90 13.60 193.74 13.98Q194.59 14.35 195.04 15.06Q195.50 15.76 195.50 16.71L195.50 16.71Q195.50 17.66 195.04 18.35Q194.59 19.05 193.74 19.42Q192.90 19.80 191.77 19.80L191.77 19.80L190.30 19.80L190.30 22ZM190.30 15.47L190.30 17.93L191.62 17.93Q192.35 17.93 192.73 17.61Q193.10 17.29 193.10 16.71L193.10 16.71Q193.10 16.12 192.73 15.80Q192.35 15.47 191.62 15.47L191.62 15.47L190.30 15.47ZM200.18 18.26L200.18 18.26L200.18 13.60L202.56 13.60L202.56 18.19Q202.56 20.20 204.15 20.20L204.15 20.20Q205.74 20.20 205.74 18.19L205.74 18.19L205.74 13.60L208.08 13.60L208.08 18.26Q208.08 20.13 207.04 21.15Q206.00 22.17 204.13 22.17L204.13 22.17Q202.26 22.17 201.22 21.15Q200.18 20.13 200.18 18.26ZM212.74 17.80L212.74 17.80Q212.74 16.54 213.34 15.54Q213.93 14.55 214.98 13.99Q216.04 13.43 217.36 13.43L217.36 13.43Q218.51 13.43 219.43 13.84Q220.36 14.25 220.97 15.02L220.97 15.02L219.46 16.39Q218.64 15.40 217.48 15.40L217.48 15.40Q216.79 15.40 216.26 15.70Q215.73 16 215.43 16.54Q215.13 17.09 215.13 17.80L215.13 17.80Q215.13 18.51 215.43 19.05Q215.73 19.60 216.26 19.90Q216.79 20.20 217.48 20.20L217.48 20.20Q218.64 20.20 219.46 19.22L219.46 19.22L220.97 20.58Q220.36 21.35 219.44 21.76Q218.51 22.17 217.36 22.17L217.36 22.17Q216.04 22.17 214.98 21.61Q213.93 21.05 213.34 20.05Q212.74 19.06 212.74 17.80ZM225.08 17.80L225.08 17.80Q225.08 16.54 225.68 15.54Q226.27 14.55 227.32 13.99Q228.38 13.43 229.69 13.43L229.69 13.43Q230.85 13.43 231.77 13.84Q232.69 14.25 233.31 15.02L233.31 15.02L231.80 16.39Q230.98 15.40 229.82 15.40L229.82 15.40Q229.13 15.40 228.60 15.70Q228.07 16 227.77 16.54Q227.47 17.09 227.47 17.80L227.47 17.80Q227.47 18.51 227.77 19.05Q228.07 19.60 228.60 19.90Q229.13 20.20 229.82 20.20L229.82 20.20Q230.98 20.20 231.80 19.22L231.80 19.22L233.31 20.58Q232.70 21.35 231.78 21.76Q230.85 22.17 229.69 22.17L229.69 22.17Q228.38 22.17 227.32 21.61Q226.27 21.05 225.68 20.05Q225.08 19.06 225.08 17.80ZM240.22 22L237.85 22L237.85 13.60L240.22 13.60L240.22 22ZM247.73 22L245.40 22L245.40 13.60L247.36 13.60L251.06 18.07L251.06 13.60L253.39 13.60L253.39 22L251.44 22L247.73 17.52L247.73 22Z" fill="#FFFFFF" x="138.05"/></svg>