<svg xmlns="http://www.w3.org/2000/svg" width="274.81" height="35" viewBox="0 0 274.81 35"><rect class="svg__rect" x="0" y="0" width="127.05" height="35" fill="#24283B"/><rect class="svg__rect" x="125.05" y="0" width="149.76" height="35" fill="#7AA2F7"/><path class="svg__text" d="M15.78 22L14.31 22L14.31 13.47L15.78 13.47L15.78 22ZM22.07 22L20.59 22L20.59 13.47L22.07 13.47L25.89 19.54L25.89 13.47L27.36 13.47L27.36 22L25.88 22L22.07 15.95L22.07 22ZM31.67 19.42L31.67 19.42L33.15 19.42Q33.15 20.15 33.63 20.55Q34.11 20.95 35.01 20.95L35.01 20.95Q35.78 20.95 36.17 20.63Q36.56 20.32 36.56 19.80L36.56 19.80Q36.56 19.24 36.16 18.94Q35.77 18.63 34.74 18.32Q33.71 18.01 33.10 17.63L33.10 17.63Q31.93 16.90 31.93 15.72L31.93 15.72Q31.93 14.69 32.77 14.02Q33.61 13.35 34.95 13.35L34.95 13.35Q35.84 13.35 36.54 13.68Q37.24 14.01 37.64 14.61Q38.04 15.22 38.04 15.96L38.04 15.96L36.56 15.96Q36.56 15.29 36.14 14.91Q35.72 14.54 34.94 14.54L34.94 14.54Q34.22 14.54 33.81 14.85Q33.41 15.16 33.41 15.71L33.41 15.71Q33.41 16.18 33.85 16.50Q34.28 16.81 35.28 17.10Q36.27 17.40 36.88 17.78Q37.48 18.16 37.76 18.65Q38.04 19.13 38.04 19.79L38.04 19.79Q38.04 20.86 37.22 21.49Q36.41 22.12 35.01 22.12L35.01 22.12Q34.08 22.12 33.30 21.77Q32.53 21.43 32.10 20.83Q31.67 20.22 31.67 19.42ZM43.81 22L42.33 22L42.33 13.47L45.59 13.47Q47.02 13.47 47.86 14.21Q48.71 14.96 48.71 16.18L48.71 16.18Q48.71 17.44 47.88 18.13Q47.06 18.83 45.58 18.83L45.58 18.83L43.81 18.83L43.81 22ZM43.81 14.66L43.81 17.64L45.59 17.64Q46.39 17.64 46.80 17.27Q47.22 16.90 47.22 16.19L47.22 16.19Q47.22 15.50 46.80 15.09Q46.37 14.68 45.64 14.66L45.64 14.66L43.81 14.66ZM54.55 22L53.08 22L53.08 13.47L54.55 13.47L54.55 22ZM60.85 22L59.36 22L59.36 13.47L62.36 13.47Q63.84 13.47 64.64 14.13Q65.45 14.79 65.45 16.05L65.45 16.05Q65.45 16.90 65.03 17.48Q64.62 18.06 63.88 18.37L63.88 18.37L65.80 21.92L65.80 22L64.21 22L62.50 18.71L60.85 18.71L60.85 22ZM60.85 14.66L60.85 17.52L62.37 17.52Q63.12 17.52 63.54 17.15Q63.96 16.77 63.96 16.11L63.96 16.11Q63.96 15.43 63.57 15.05Q63.18 14.68 62.41 14.66L62.41 14.66L60.85 14.66ZM75.42 22L69.84 22L69.84 13.47L75.38 13.47L75.38 14.66L71.32 14.66L71.32 17.02L74.83 17.02L74.83 18.19L71.32 18.19L71.32 20.82L75.42 20.82L75.42 22ZM82.07 22L79.61 22L79.61 13.47L82.13 13.47Q83.26 13.47 84.14 13.97Q85.02 14.48 85.50 15.40Q85.98 16.33 85.98 17.52L85.98 17.52L85.98 17.95Q85.98 19.16 85.49 20.08Q85.01 21.00 84.12 21.50Q83.22 22 82.07 22L82.07 22ZM81.10 14.66L81.10 20.82L82.06 20.82Q83.23 20.82 83.85 20.09Q84.48 19.36 84.49 17.99L84.49 17.99L84.49 17.52Q84.49 16.13 83.89 15.40Q83.28 14.66 82.13 14.66L82.13 14.66L81.10 14.66ZM99.53 22L96.42 22L96.42 13.47L99.34 13.47Q100.79 13.47 101.55 14.05Q102.30 14.63 102.30 15.78L102.30 15.78Q102.30 16.36 101.98 16.83Q101.67 17.30 101.06 17.56L101.06 17.56Q101.75 17.75 102.13 18.26Q102.51 18.78 102.51 19.51L102.51 19.51Q102.51 20.71 101.74 21.36Q100.97 22 99.53 22L99.53 22ZM97.90 18.15L97.90 20.82L99.55 20.82Q100.24 20.82 100.64 20.47Q101.03 20.13 101.03 19.51L101.03 19.51Q101.03 18.18 99.67 18.15L99.67 18.15L97.90 18.15ZM97.90 14.66L97.90 17.06L99.35 17.06Q100.05 17.06 100.43 16.75Q100.82 16.43 100.82 15.86L100.82 15.86Q100.82 15.23 100.46 14.95Q100.10 14.66 99.34 14.66L99.34 14.66L97.90 14.66ZM109.02 18.86L106.15 13.47L107.80 13.47L109.76 17.51L111.72 13.47L113.36 13.47L110.50 18.86L110.50 22L109.02 22L109.02 18.86Z" fill="#F0F0F0"/><path class="svg__text" d="M141.03 15.48L138.45 15.48L138.45 13.60L145.97 13.60L145.97 15.48L143.40 15.48L143.40 22L141.03 22L141.03 15.48ZM149.91 17.80L149.91 17.80Q149.91 16.55 150.52 15.55Q151.12 14.56 152.18 14.00Q153.25 13.43 154.58 13.43L154.58 13.43Q155.91 13.43 156.97 14.00Q158.03 14.56 158.64 15.55Q159.25 16.55 159.25 17.80L159.25 17.80Q159.25 19.05 158.64 20.04Q158.03 21.04 156.97 21.60Q155.91 22.17 154.58 22.17L154.58 22.17Q153.25 22.17 152.18 21.60Q151.12 21.04 150.52 20.04Q149.91 19.05 149.91 17.80ZM152.31 17.80L152.31 17.80Q152.31 18.51 152.61 19.05Q152.91 19.60 153.43 19.90Q153.94 20.20 154.58 20.20L154.58 20.20Q155.22 20.20 155.73 19.90Q156.25 19.60 156.55 19.05Q156.85 18.51 156.85 17.80L156.85 17.80Q156.85 17.09 156.55 16.54Q156.25 16 155.73 15.70Q155.22 15.40 154.58 15.40L154.58 15.40Q153.94 15.40 153.43 15.70Q152.91 16 152.61 16.54Q152.31 17.09 152.31 17.80ZM166.33 22L163.98 22L163.98 13.60L166.33 13.60L166.33 17.09L169.58 13.60L172.20 13.60L168.77 17.32L172.38 22L169.62 22L167.22 18.95L166.33 19.90L166.33 22ZM178.61 18.95L175.41 13.60L177.92 13.60L179.91 16.94L181.90 13.60L184.20 13.60L180.99 18.99L180.99 22L178.61 22L178.61 18.95ZM187.86 17.80L187.86 17.80Q187.86 16.55 188.46 15.55Q189.07 14.56 190.13 14.00Q191.19 13.43 192.52 13.43L192.52 13.43Q193.85 13.43 194.92 14.00Q195.98 14.56 196.59 15.55Q197.19 16.55 197.19 17.80L197.19 17.80Q197.19 19.05 196.59 20.04Q195.98 21.04 194.92 21.60Q193.86 22.17 192.52 22.17L192.52 22.17Q191.19 22.17 190.13 21.60Q189.07 21.04 188.46 20.04Q187.86 19.05 187.86 17.80ZM190.26 17.80L190.26 17.80Q190.26 18.51 190.56 19.05Q190.86 19.60 191.37 19.90Q191.89 20.20 192.52 20.20L192.52 20.20Q193.16 20.20 193.68 19.90Q194.19 19.60 194.49 19.05Q194.79 18.51 194.79 17.80L194.79 17.80Q194.79 17.09 194.49 16.54Q194.19 16 193.68 15.70Q193.16 15.40 192.52 15.40L192.52 15.40Q191.88 15.40 191.37 15.70Q190.86 16 190.56 16.54Q190.26 17.09 190.26 17.80ZM211.23 22L208.89 22L208.89 13.60L210.85 13.60L214.56 18.07L214.56 13.60L216.89 13.60L216.89 22L214.94 22L211.23 17.52L211.23 22ZM224.43 22L222.05 22L222.05 13.60L224.43 13.60L224.43 22ZM229.17 17.80L229.17 17.80Q229.17 16.54 229.77 15.54Q230.37 14.55 231.44 13.99Q232.51 13.43 233.85 13.43L233.85 13.43Q235.03 13.43 235.96 13.83Q236.90 14.22 237.52 14.97L237.52 14.97L236.01 16.33Q235.17 15.40 233.99 15.40L233.99 15.40Q233.98 15.40 233.97 15.40L233.97 15.40Q232.89 15.40 232.23 16.06Q231.57 16.71 231.57 17.80L231.57 17.80Q231.57 18.50 231.87 19.04Q232.17 19.59 232.71 19.89Q233.25 20.20 233.95 20.20L233.95 20.20Q234.63 20.20 235.23 19.93L235.23 19.93L235.23 17.62L237.33 17.62L237.33 21.10Q236.61 21.61 235.67 21.89Q234.74 22.17 233.80 22.17L233.80 22.17Q232.48 22.17 231.43 21.61Q230.37 21.05 229.77 20.05Q229.17 19.06 229.17 17.80ZM244.70 22L242.32 22L242.32 13.60L244.70 13.60L244.70 16.76L247.94 16.76L247.94 13.60L250.31 13.60L250.31 22L247.94 22L247.94 18.72L244.70 18.72L244.70 22ZM257.27 15.48L254.69 15.48L254.69 13.60L262.21 13.60L262.21 15.48L259.64 15.48L259.64 22L257.27 22L257.27 15.48Z" fill="#2E3440" x="138.05"/></svg>