<svg xmlns="http://www.w3.org/2000/svg" width="198.87" height="35" viewBox="0 0 198.87 35"><rect class="svg__rect" x="0" y="0" width="127.05" height="35" fill="#2E3440"/><rect class="svg__rect" x="125.05" y="0" width="73.82" height="35" fill="#88C0D0"/><path class="svg__text" d="M15.78 22L14.31 22L14.31 13.47L15.78 13.47L15.78 22ZM22.07 22L20.59 22L20.59 13.47L22.07 13.47L25.89 19.54L25.89 13.47L27.36 13.47L27.36 22L25.88 22L22.07 15.95L22.07 22ZM31.67 19.42L31.67 19.42L33.15 19.42Q33.15 20.15 33.63 20.55Q34.11 20.95 35.01 20.95L35.01 20.95Q35.78 20.95 36.17 20.63Q36.56 20.32 36.56 19.80L36.56 19.80Q36.56 19.24 36.16 18.94Q35.77 18.63 34.74 18.32Q33.71 18.01 33.10 17.63L33.10 17.63Q31.93 16.90 31.93 15.72L31.93 15.72Q31.93 14.69 32.77 14.02Q33.61 13.35 34.95 13.35L34.95 13.35Q35.84 13.35 36.54 13.68Q37.24 14.01 37.64 14.61Q38.04 15.22 38.04 15.96L38.04 15.96L36.56 15.96Q36.56 15.29 36.14 14.91Q35.72 14.54 34.94 14.54L34.94 14.54Q34.22 14.54 33.81 14.85Q33.41 15.16 33.41 15.71L33.41 15.71Q33.41 16.18 33.85 16.50Q34.28 16.81 35.28 17.10Q36.27 17.40 36.88 17.78Q37.48 18.16 37.76 18.65Q38.04 19.13 38.04 19.79L38.04 19.79Q38.04 20.86 37.22 21.49Q36.41 22.12 35.01 22.12L35.01 22.12Q34.08 22.12 33.30 21.77Q32.53 21.43 32.10 20.83Q31.67 20.22 31.67 19.42ZM43.81 22L42.33 22L42.33 13.47L45.59 13.47Q47.02 13.47 47.86 14.21Q48.71 14.96 48.71 16.18L48.71 16.18Q48.71 17.44 47.88 18.13Q47.06 18.83 45.58 18.83L45.58 18.83L43.81 18.83L43.81 22ZM43.81 14.66L43.81 17.64L45.59 17.64Q46.39 17.64 46.80 17.27Q47.22 16.90 47.22 16.19L47.22 16.19Q47.22 15.50 46.80 15.09Q46.37 14.68 45.64 14.66L45.64 14.66L43.81 14.66ZM54.55 22L53.08 22L53.08 13.47L54.55 13.47L54.55 22ZM60.85 22L59.36 22L59.36 13.47L62.36 13.47Q63.84 13.47 64.64 14.13Q65.45 14.79 65.45 16.05L65.45 16.05Q65.45 16.90 65.03 17.48Q64.62 18.06 63.88 18.37L63.88 18.37L65.80 21.92L65.80 22L64.21 22L62.50 18.71L60.85 18.71L60.85 22ZM60.85 14.66L60.85 17.52L62.37 17.52Q63.12 17.52 63.54 17.15Q63.96 16.77 63.96 16.11L63.96 16.11Q63.96 15.43 63.57 15.05Q63.18 14.68 62.41 14.66L62.41 14.66L60.85 14.66ZM75.42 22L69.84 22L69.84 13.47L75.38 13.47L75.38 14.66L71.32 14.66L71.32 17.02L74.83 17.02L74.83 18.19L71.32 18.19L71.32 20.82L75.42 20.82L75.42 22ZM82.07 22L79.61 22L79.61 13.47L82.13 13.47Q83.26 13.47 84.14 13.97Q85.02 14.48 85.50 15.40Q85.98 16.33 85.98 17.52L85.98 17.52L85.98 17.95Q85.98 19.16 85.49 20.08Q85.01 21.00 84.12 21.50Q83.22 22 82.07 22L82.07 22ZM81.10 14.66L81.10 20.82L82.06 20.82Q83.23 20.82 83.85 20.09Q84.48 19.36 84.49 17.99L84.49 17.99L84.49 17.52Q84.49 16.13 83.89 15.40Q83.28 14.66 82.13 14.66L82.13 14.66L81.10 14.66ZM99.53 22L96.42 22L96.42 13.47L99.34 13.47Q100.79 13.47 101.55 14.05Q102.30 14.63 102.30 15.78L102.30 15.78Q102.30 16.36 101.98 16.83Q101.67 17.30 101.06 17.56L101.06 17.56Q101.75 17.75 102.13 18.26Q102.51 18.78 102.51 19.51L102.51 19.51Q102.51 20.71 101.74 21.36Q100.97 22 99.53 22L99.53 22ZM97.90 18.15L97.90 20.82L99.55 20.82Q100.24 20.82 100.64 20.47Q101.03 20.13 101.03 19.51L101.03 19.51Q101.03 18.18 99.67 18.15L99.67 18.15L97.90 18.15ZM97.90 14.66L97.90 17.06L99.35 17.06Q100.05 17.06 100.43 16.75Q100.82 16.43 100.82 15.86L100.82 15.86Q100.82 15.23 100.46 14.95Q100.10 14.66 99.34 14.66L99.34 14.66L97.90 14.66ZM109.02 18.86L106.15 13.47L107.80 13.47L109.76 17.51L111.72 13.47L113.36 13.47L110.50 18.86L110.50 22L109.02 22L109.02 18.86Z" fill="#F0F0F0"/><path class="svg__text" d="M141.57 22L139.24 22L139.24 13.60L141.19 13.60L144.90 18.07L144.90 13.60L147.23 13.60L147.23 22L145.28 22L141.57 17.52L141.57 22ZM151.96 17.80L151.96 17.80Q151.96 16.55 152.57 15.55Q153.17 14.56 154.23 14.00Q155.30 13.43 156.63 13.43L156.63 13.43Q157.96 13.43 159.02 14.00Q160.09 14.56 160.69 15.55Q161.30 16.55 161.30 17.80L161.30 17.80Q161.30 19.05 160.69 20.04Q160.09 21.04 159.03 21.60Q157.96 22.17 156.63 22.17L156.63 22.17Q155.30 22.17 154.23 21.60Q153.17 21.04 152.57 20.04Q151.96 19.05 151.96 17.80ZM154.36 17.80L154.36 17.80Q154.36 18.51 154.66 19.05Q154.96 19.60 155.48 19.90Q156.00 20.20 156.63 20.20L156.63 20.20Q157.27 20.20 157.78 19.90Q158.30 19.60 158.60 19.05Q158.90 18.51 158.90 17.80L158.90 17.80Q158.90 17.09 158.60 16.54Q158.30 16 157.78 15.70Q157.27 15.40 156.63 15.40L156.63 15.40Q155.99 15.40 155.48 15.70Q154.96 16 154.66 16.54Q154.36 17.09 154.36 17.80ZM168.41 22L166.03 22L166.03 13.60L169.87 13.60Q171.01 13.60 171.85 13.98Q172.69 14.35 173.15 15.06Q173.60 15.76 173.60 16.71L173.60 16.71Q173.60 17.62 173.18 18.30Q172.75 18.98 171.96 19.36L171.96 19.36L173.77 22L171.22 22L169.70 19.77L168.41 19.77L168.41 22ZM168.41 15.47L168.41 17.93L169.72 17.93Q170.46 17.93 170.83 17.61Q171.20 17.29 171.20 16.71L171.20 16.71Q171.20 16.12 170.83 15.79Q170.46 15.47 169.72 15.47L169.72 15.47L168.41 15.47ZM182.36 22L178.39 22L178.39 13.60L182.36 13.60Q183.75 13.60 184.81 14.12Q185.88 14.63 186.47 15.58Q187.06 16.53 187.06 17.80L187.06 17.80Q187.06 19.07 186.47 20.02Q185.88 20.97 184.81 21.48Q183.75 22 182.36 22L182.36 22ZM180.77 15.50L180.77 20.10L182.27 20.10Q183.35 20.10 184.00 19.49Q184.65 18.88 184.65 17.80L184.65 17.80Q184.65 16.72 184.00 16.11Q183.35 15.50 182.27 15.50L182.27 15.50L180.77 15.50Z" fill="#2E3440" x="138.05"/></svg>